<svg version="1.1" class="pan-logo-icon" width="20" height="20" x="0px" y="0px" viewBox="0 0 20 20" xml:space="preserve" xmlns="http://www.w3.org/2000/svg">
	<path style="fill: black" class="pan-icon-bg" d="M4,0h12c2.2,0,4,1.8,4,4v12c0,2.2-1.8,4-4,4H4c-2.2,0-4-1.8-4-4V4C0,1.8,1.8,0,4,0z"/>
	<path style="fill: white" d="M3.1,12.6l-0.2,1.1c-0.1,0.5-0.5,0.9-1,0.9c-0.5,0-0.8-0.4-0.7-0.9l0.2-1.1c0.1-0.5,0.5-0.9,1-0.9 C2.8,11.8,3.1,12.2,3.1,12.6L3.1,12.6z"/>
	<path style="fill: white" d="M20,12.8c-0.1,0.1-0.3,0.1-0.4,0.1c-0.5,0-0.8-0.4-0.7-0.9l0.2-1.1c0.1-0.5,0.5-0.8,1-0.9L20,12.8z"/>
	<path style="fill: white" d="M6,12.6l-0.7,3.8c-0.1,0.5-0.5,0.9-1,0.9c-0.5,0-0.8-0.4-0.7-0.9l0.7-3.8c0.1-0.5,0.5-0.9,1-0.9 C5.7,11.8,6,12.2,6,12.6L6,12.6z"/>
	<path style="fill: white" d="M9.2,10.9l-1.3,7.3c-0.1,0.5-0.5,0.9-1,0.9c-0.5,0-0.8-0.4-0.7-0.9l1.3-7.3C7.5,10.4,8,10,8.5,10 C8.9,10,9.2,10.4,9.2,10.9L9.2,10.9z"/>
	<path style="fill: white" d="M12.7,7.4L11,17.3c-0.1,0.5-0.5,0.9-1,0.9c-0.5,0-0.8-0.4-0.7-0.9L11,7.4c0.1-0.5,0.5-0.9,1-0.9 C12.4,6.6,12.8,6.9,12.7,7.4L12.7,7.4z"/>
	<path style="fill: white" d="M15.7,6.5l-1.3,7.3c-0.1,0.5-0.5,0.9-1,0.9c-0.5,0-0.8-0.4-0.7-0.9L14,6.5c0.1-0.5,0.5-0.9,1-0.9 C15.5,5.6,15.8,6,15.7,6.5L15.7,6.5z"/>
	<path style="fill: white" d="M18.3,8.2l-0.7,3.8c-0.1,0.5-0.5,0.9-1,0.9c-0.5,0-0.8-0.4-0.7-0.9l0.7-3.8c0.1-0.5,0.5-0.9,1-0.9 C18.1,7.4,18.4,7.8,18.3,8.2L18.3,8.2z"/>
</svg>
